<?xml version="1.0" encoding="UTF-8"?>
<svg id="Calque_1" data-name="Calque 1" xmlns="http://www.w3.org/2000/svg" viewBox="0 0 735.32 211.55">
  <defs>
    <style>
      .cls-1 {
        fill: #f4f4f4;
      }

      .cls-2 {
        fill: #7373b4;
      }
    </style>
  </defs>
  <g>
    <path class="cls-1" d="m341.34,154.17h5.74v13.23h13.61v-13.23h5.74v31.5h-5.74v-13.41h-13.61v13.41h-5.74v-31.5Z"/>
    <path class="cls-1" d="m380.34,154.17h21.83v4.72h-16.13v8.55h14.3v4.72h-14.3v8.77h16.38v4.72h-22.07v-31.5Z"/>
    <path class="cls-1" d="m425.04,153.99h5.54l12.72,31.68h-5.99l-2.87-7.42h-13.46l-2.87,7.42h-5.79l12.72-31.68Zm7.62,19.62l-4.95-12.64-4.95,12.64h9.9Z"/>
    <path class="cls-1" d="m454.69,154.17h5.74v26.68h14.85v4.81h-20.59v-31.5Z"/>
    <path class="cls-1" d="m489.88,159.03h-9.11v-4.86h23.96v4.86h-9.11v26.64h-5.74v-26.64Z"/>
    <path class="cls-1" d="m516.56,154.17h5.74v13.23h13.61v-13.23h5.74v31.5h-5.74v-13.41h-13.61v13.41h-5.74v-31.5Z"/>
    <path class="cls-1" d="m554.28,170.1v-.31c0-9.54,6.53-16.06,15.49-16.06,4.85,0,8.07,1.58,10.89,3.91l-3.46,4c-2.03-1.71-4.31-3.06-7.42-3.06-5.44,0-9.55,4.5-9.55,11.2v.18c0,6.84,4.11,11.29,9.55,11.29,3.32,0,5.49-1.39,7.67-3.28l3.37,3.69c-3.02,2.84-6.53,4.46-11.33,4.46-8.86,0-15.19-6.39-15.19-16.02Z"/>
    <path class="cls-1" d="m602.69,153.99h5.54l12.72,31.68h-5.99l-2.87-7.42h-13.46l-2.87,7.42h-5.79l12.72-31.68Zm7.62,19.62l-4.95-12.64-4.95,12.64h9.9Z"/>
    <path class="cls-1" d="m632.34,154.17h12.52c3.96,0,7.18,1.08,9.26,2.97,1.83,1.66,2.87,4.05,2.87,6.93v.18c0,4.86-2.97,7.87-7.18,9.22l8.17,12.19h-6.63l-7.37-11.16c-.1.04-.25.04-.35.04h-5.54v11.11h-5.74v-31.5Zm11.93,15.7c4.45,0,6.93-2.16,6.93-5.44v-.09c0-3.55-2.52-5.4-6.83-5.4h-6.29v10.93h6.19Z"/>
    <path class="cls-1" d="m669.66,154.17h21.83v4.72h-16.13v8.55h14.3v4.72h-14.3v8.77h16.38v4.72h-22.07v-31.5Z"/>
  </g>
  <path class="cls-2" d="m315.48,34.53c9.06,0,16.42,7.21,16.42,16.07s-14.18,23.33-16.42,23.33-16.42-14.46-16.42-23.33,7.36-16.07,16.42-16.07Z"/>
  <g>
    <path class="cls-1" d="m684.64,34.17l-20.58,46.34-24.09-46.34h-17.9c-6.5,0-10.36,0-8.57,6.5l36.68,70.79-13.56,30.22h29.2l48.03-107.5h-29.2Z"/>
    <path class="cls-1" d="m597.66,77.46c2.71-4.07,3.99-8.57,3.99-13.37,0-16.13-16.12-29.35-35.9-29.35l-31.11-.15v95.29c0,6.51,5.27,11.78,11.78,11.78h22.53c24.73,0,44.84-16.13,44.84-36.32,0-11.19-6.06-21.07-16.12-27.89Zm-36.06-18.16h4.15c5.58,0,8.94,2.91,8.94,4.79,0,2.18-3.51,4.79-8.78,4.94h-4.31v-9.73Zm7.34,57.67h-7.34v-23.39h7.34c9.57,0,17.87,5.37,17.87,11.77s-8.3,11.62-17.87,11.62Z"/>
    <path class="cls-1" d="m510.38,77.46c2.71-4.07,3.99-8.57,3.99-13.37,0-16.13-16.12-29.35-35.9-29.35l-31.11-.15v95.29c0,6.51,5.27,11.78,11.78,11.78h22.53c24.73,0,44.84-16.13,44.84-36.32,0-11.19-6.06-21.07-16.12-27.89Zm-36.06-18.16h4.15c5.58,0,8.94,2.91,8.94,4.79,0,2.18-3.51,4.79-8.78,4.94h-4.31v-9.73Zm7.34,57.67h-7.34v-23.39h7.34c9.57,0,17.87,5.37,17.87,11.77s-8.3,11.62-17.87,11.62Z"/>
    <path class="cls-1" d="m406.97,46.24h0c-2.17-6.24-9.16-11.2-15.67-11.2h-13.84l-39.89,106.63h28.56l4.79-12.93h36.86l4.63,12.93h28.4l-33.84-95.43Zm-26.79,57.95l9.73-25.86,9.25,25.86h-18.99Z"/>
    <path class="cls-1" d="m235.23,34.46v-.15h-11.12c-8.75,0-15.84,7.09-15.84,15.84v75.53c0,8.75,7.09,15.84,15.84,15.84h11.12c31.75-1.6,56.17-24.26,56.17-52.88s-24.89-52.59-56.17-54.19Zm0,82.37v-57.82c16.43,1.6,29.2,14.38,29.2,29.64s-12.61,26.59-29.2,28.18Z"/>
    <path class="cls-1" d="m321.42,141.53c4.66,0,8.43-3.78,8.43-8.43v-60.8c0-.18-.04-.92-.39-.64-.03.02-.07.07-.1.11-4.81,6.51-11.41,14.32-13.89,14.32s-9.8-8.18-13.89-14.32c-.03-.04-.1-.14-.13-.15-.37-.15-.35.43-.35.68v69.23"/>
  </g>
  <path class="cls-2" d="m63.96,108.11c.5-.58,1.45-.15,1.35.6-.82,6.04-.75,7.35-.8,13.06-.09,10.71,6.74,19.3,17.96,19.63.21,0,.4-.11.49-.3,5.37-10.71,9.28-20.83,13.56-31.8.16-.42.57-.56,1.02-.46.26.06.34.41.39.67,0,13.29-4.92,26.47,9.36,31.07,7.3,2.35,16.35-6.26,24.15-12.08.67-.5,1.63-.17,1.85.64.66,2.43,2.46,6.12,5.5,7.64,7.85,3.93,17.71,4.67,25.71-3.9.2-.21.39-.6.84-.69-2.19,9.12-5.76,18.07-8.16,26.84-1.28,4.7.54,11.73,5.23,14.32,3.68,2.04,7.84,3.38,11.74,4.96.27.11.57-.03.66-.31,8.97-27.84,17.8-54.66,26.21-81.59,4.42-14.16-3.22-23.31-19.46-24.08-.22-.01-.43.11-.51.31-7.49,20.39-12.59,36.08-23.7,50.78-.67.89-2.12-.08-1.83-1.15,2.17-7.93,4.76-15.73,8.57-22.98,5.93-11.31,3.95-18.05-8.09-23.99-5.71-2.82-9.99-2.46-12.37,3.31-3.72,9.04-7.44,18.46-10.14,26.23-3.82,10.3-4.36,13.6-13.15,16.44-.4.13-.74-.25-.62-.66,2.99-9.57,4.69-12.59,6.63-21.14,3.79-16.68-.03-17.23-3.46-20.28-4.2-3.73-11.04-5.88-14.53-5.89s-7.36.91-10.59,5.03c-2.04,2.6-2.98,3.79-5.63,9.94-.02.06-.11.05-.12-.01-1.23-5.24-1.54-8.43-4.9-11.25-3.85-3.23-13.95-5.6-17.3-3.25-4.7,3.29-8.64,9.97-9.28,14.67-.03.24-.28.26-.31.02-1.42-11.92-.49-12.99-16.77-16.75-.27-.06-.55.1-.63.37-.37,1.36-.73,2.77-1.15,4.17-4.6,15.2-8.82,30.5-13.96,45.54-2.92,8.53-5.36,10.4,2.79,15.11,2.38,1.38,9.14,3.3,11.91,3.62,5.45.64,8.02.71,10.3-3.84l11.22-28.59Z"/>
</svg>